<svg width="193" height="209" viewBox="0 0 193 209" fill="none" xmlns="http://www.w3.org/2000/svg">
<path d="M115.5 208.78H108.905C108.135 208.779 107.396 208.473 106.852 207.928C106.307 207.384 106.001 206.645 106 205.875V150.905C106.001 150.135 106.307 149.396 106.852 148.852C107.396 148.307 108.135 148.001 108.905 148H115.5C116.27 148.001 117.008 148.307 117.553 148.852C118.097 149.396 118.404 150.135 118.405 150.905V205.875C118.404 206.645 118.097 207.384 117.553 207.928C117.008 208.473 116.27 208.779 115.5 208.78Z" fill="#80CBC4"/>
<path d="M129.545 208.78H122.949C122.179 208.779 121.441 208.473 120.896 207.928C120.352 207.384 120.046 206.645 120.045 205.875V150.905C120.046 150.135 120.352 149.396 120.896 148.852C121.441 148.307 122.179 148.001 122.949 148H129.545C130.315 148.001 131.053 148.307 131.598 148.852C132.142 149.396 132.449 150.135 132.45 150.905V205.875C132.449 206.645 132.142 207.384 131.598 207.928C131.053 208.473 130.315 208.779 129.545 208.78Z" fill="#80CBC4"/>
<path d="M135.096 154.923H105.128C104.299 154.922 103.504 154.592 102.917 154.006C102.331 153.42 102.001 152.624 102 151.795V103.112C102 98.3084 103.908 93.7015 107.305 90.3049C110.702 86.9082 115.308 85 120.112 85C124.915 85 129.522 86.9082 132.919 90.3049C136.316 93.7015 138.224 98.3084 138.224 103.112V151.795C138.223 152.624 137.893 153.42 137.307 154.006C136.72 154.592 135.925 154.922 135.096 154.923Z" fill="#CCCCCC"/>
<path d="M141.193 163.867H126V78L126.282 78.077C130.561 79.2516 134.337 81.7972 137.03 85.3235C139.723 88.8498 141.186 93.1621 141.193 97.5993V163.867Z" fill="#009EE2"/>
<path d="M113.193 163.867H98V97.5993C98.0074 93.1621 99.4699 88.8498 102.163 85.3235C104.857 81.7973 108.632 79.2517 112.911 78.077L113.193 78V163.867Z" fill="#009EE2"/>
<path d="M119.916 69.8315C133.124 69.8315 143.831 59.1241 143.831 45.9158C143.831 32.7075 133.124 22 119.916 22C106.707 22 96 32.7075 96 45.9158C96 59.1241 106.707 69.8315 119.916 69.8315Z" fill="##009EE2"/>
<path d="M146.869 36.0618C146.869 36.0618 148.209 -1.02789 130.782 11.0374C130.782 11.0374 120.727 -22.7007 96.1498 27.7948L89 34.9446C89 34.9446 121.174 30.476 151.114 44.3287L146.869 36.0618Z" fill="#009EE2"/>
<path d="M44.7713 119.89C44.6576 119.714 44.5632 119.525 44.4899 119.328L42.1825 113.149C41.914 112.428 41.9427 111.629 42.2623 110.928C42.5819 110.228 43.1664 109.682 43.8875 109.412L95.385 90.1827C96.1067 89.914 96.9055 89.9426 97.6061 90.2622C98.3067 90.5818 98.8519 91.1663 99.1221 91.8875L101.429 98.0665C101.563 98.4238 101.624 98.8039 101.611 99.1851C101.597 99.5663 101.509 99.9412 101.351 100.288C101.192 100.635 100.967 100.948 100.688 101.208C100.409 101.468 100.082 101.67 99.7241 101.804L48.2271 121.033C47.6071 121.264 46.9267 121.277 46.2984 121.069C45.67 120.862 45.1313 120.446 44.7713 119.89Z" fill="#C8C9CB"/>
<path d="M102.85 86.1689L81.9089 94.5195C81.249 94.718 80.6909 95.1629 80.3503 95.7619C80.0098 96.361 79.9129 97.0682 80.0799 97.7367L82.5102 107.467C82.6062 107.852 82.7862 108.21 83.0372 108.516C83.2882 108.823 83.6041 109.07 83.962 109.24C84.3199 109.41 84.7111 109.498 85.1073 109.499C85.5034 109.499 85.8948 109.412 86.2533 109.243L107.252 99.3594C107.918 99.1097 108.457 98.6067 108.752 97.9604C109.047 97.3141 109.074 96.5771 108.827 95.9109L106.303 87.7442C106.054 87.0778 105.55 86.5377 104.903 86.2423C104.255 85.947 103.517 85.9205 102.85 86.1689Z" fill="#00ADEF"/>
<path d="M151.164 155.907C150.507 155.982 149.843 155.831 149.283 155.479C148.723 155.126 148.3 154.593 148.084 153.967L130.159 102.002C130.034 101.642 129.982 101.26 130.005 100.879C130.028 100.499 130.126 100.126 130.293 99.7831C130.46 99.4402 130.693 99.1335 130.979 98.8806C131.264 98.6277 131.597 98.4336 131.957 98.3092L138.192 96.1582C138.921 95.9076 139.719 95.9563 140.411 96.2935C141.103 96.6308 141.634 97.2291 141.885 97.957L159.811 149.923C160.061 150.651 160.012 151.449 159.675 152.141C159.338 152.833 158.74 153.364 158.012 153.616L151.777 155.766C151.579 155.835 151.373 155.882 151.164 155.907Z" fill="#C8C9CB"/>
<path d="M141.123 91.8078L148.003 113.277C148.269 113.913 148.281 114.627 148.036 115.27C147.79 115.914 147.306 116.439 146.684 116.735L137.631 121.051C137.273 121.221 136.882 121.31 136.486 121.312C136.09 121.313 135.698 121.226 135.339 121.058C134.981 120.89 134.664 120.645 134.411 120.339C134.158 120.034 133.977 119.677 133.879 119.293L128.145 96.803C127.915 96.1309 127.96 95.3949 128.271 94.756C128.582 94.117 129.133 93.6273 129.804 93.394L137.711 90.1461C138.384 89.9146 139.121 89.9596 139.761 90.2712C140.4 90.5827 140.89 91.1354 141.123 91.8078Z" fill="#00ADEF"/>
<path d="M47.2311 115.352C46.5861 115.652 45.8485 115.682 45.1808 115.438C44.5131 115.193 43.9698 114.694 43.6705 114.049L28.2489 80.8093C27.9497 80.1642 27.919 79.4268 28.1635 78.7591C28.4081 78.0915 28.9078 77.5483 29.5528 77.249C30.1978 76.9498 30.9352 76.919 31.6029 77.1634C32.2706 77.4078 32.8138 77.9075 33.1132 78.5524L48.5348 111.792C48.8341 112.437 48.8649 113.174 48.6204 113.842C48.3759 114.51 47.8761 115.053 47.2311 115.352Z" fill="#00ADEF"/>
<path d="M30.4768 81.9067C26.6285 83.6921 22.3372 84.2963 18.1455 83.6428C13.9539 82.9894 10.0501 81.1076 6.92788 78.2355C3.80567 75.3635 1.60526 71.63 0.604888 67.5074C-0.395482 63.3847 -0.150876 59.058 1.30778 55.0743C2.76643 51.0907 5.37359 47.6291 8.79961 45.1272C12.2257 42.6253 16.3166 41.1955 20.5552 41.0187C24.7939 40.8418 28.9897 41.9258 32.6123 44.1336C36.2348 46.3414 39.1213 49.5738 40.9067 53.4221C43.2943 58.5834 43.537 64.481 41.5817 69.821C39.6264 75.1611 35.6327 79.5075 30.4768 81.9067ZM14.679 47.8565C11.7927 49.1956 9.36838 51.3604 7.71253 54.0773C6.05669 56.7942 5.2437 59.9411 5.37635 63.1201C5.50899 66.299 6.5813 69.3673 8.45772 71.9368C10.3342 74.5063 12.9304 76.4617 15.9182 77.5556C18.9059 78.6496 22.1509 78.8331 25.2429 78.0828C28.3349 77.3325 31.135 75.6822 33.2891 73.3406C35.4431 70.9989 36.8545 68.0711 37.3446 64.9273C37.8346 61.7836 37.3815 58.5651 36.0424 55.6789C34.243 51.812 30.9832 48.8167 26.9782 47.3503C22.9731 45.8838 18.5499 46.0658 14.679 47.8565Z" fill="#00ADEF"/>
<path d="M119.168 61.214C117.691 61.173 115.852 61.1217 114.436 60.087C114.014 59.7663 113.667 59.3572 113.42 58.8885C113.173 58.4197 113.032 57.9026 113.006 57.3734C112.98 56.9972 113.042 56.6203 113.186 56.272C113.33 55.9237 113.553 55.6135 113.837 55.3655C114.577 54.7404 115.657 54.5938 116.821 54.9359L115.615 46.1213L116.5 46L117.918 56.3627L117.179 56.0234C116.322 55.6302 115.145 55.4301 114.414 56.048C114.234 56.2096 114.094 56.4104 114.005 56.6348C113.916 56.8592 113.879 57.1012 113.899 57.3419C113.92 57.7358 114.027 58.1204 114.21 58.4696C114.394 58.8187 114.651 59.1242 114.963 59.3652C116.065 60.1704 117.531 60.2743 119.193 60.3207L119.168 61.214Z" fill="#4B4B4B"/>
<path d="M111.813 44H107V44.8937H111.813V44Z" fill="#00ADEF"/>
<path d="M126.813 44H122V44.8937H126.813V44Z" fill="#00ADEF"/>
<path d="M192.098 207.761H47.3V208.762H192.098V207.761Z" fill="#00ADEF"/>
</svg>
