<svg width="150" height="206" viewBox="0 0 150 206" fill="none" xmlns="http://www.w3.org/2000/svg">
<path d="M149.798 204H5V205.001H149.798V204Z" fill="#9A9A9A"/>
<path d="M67.S5 203.78H60.9046C60.1345 203.779 59.3963 203.473 58.8517 202.928C58.3072 202.384 58.0009 201.645 58 200.875V145.905C58.0009 145.135 58.3072 144.396 58.8517 143.852C59.3963 143.307 60.1345 143.001 60.9046 143H67.5C68.2701 143.001 69.0084 143.307 69.5529 143.852C70.0974 144.396 70.4037 145.135 70.4046 145.905V200.875C70.4037 201.645 70.0974 202.384 69.5529 202.928C69.0084 203.473 68.2701 203.779 67.5 203.78Z" fill="#80CBC4"/>
<path d="M92.038 94.754C91.8636 94.6365 91.7022 94.5007 91.5568 94.3487L86.9924 89.588C86.4601 89.0315 86.1703 88.2866 86.1865 87.5167C86.2028 86.7468 86.5237 86.0147 87.0789 85.4811L126.76 47.4391C127.316 46.9067 128.061 46.6168 128.831 46.6329C129.601 46.6491 130.333 46.9701 130.866 47.5254L135.431 52.2866C135.695 52.562 135.902 52.8866 136.04 53.242C136.179 53.5974 136.246 53.9766 136.238 54.3579C136.23 54.7393 136.147 55.1153 135.993 55.4645C135.84 55.8138 135.619 56.1294 135.344 56.3933L95.6637 94.4352C95.1859 94.893 94.5661 95.1741 93.9069 95.2321C93.2477 95.29 92.5884 95.1214 92.038 94.754Z" fill="#C8C9CB"/>
<path d="M81.545 203.78H74.9494C74.1793 203.779 73.441 203.473 72.8965 202.928C72.352 202.384 72.0457 201.645 72.0448 200.875V145.905C72.0457 145.135 72.352 144.396 72.8965 143.852C73.441 143.307 74.1793 143.001 74.9494 143H81.545C82.3151 143.001 83.0534 143.307 83.5979 143.852C84.1424 144.396 84.4487 145.135 84.4496 145.905V200.875C84.4487 201.645 84.1424 202.384 83.5979 202.928C83.0534 203.473 82.3151 203.779 81.545 203.78Z" fill="#80CBC4"/>
<path d="M87.0958 149.923H57.128156.2987 149.922 55.5036 149.592 54.9172 149.006C54.3308 148.42 54.0009 147.624 54 146.795V98.112C54 93.3084 55.9082 88.7015 59.3049 85.3049C62.7015 81.9082 67.3083 80 72.1119 80C76.9155 80 81.5223 81.9082 84.919 85.3049C88.3156 88.7015 90.2238 93.3084 90.2238 98.112V146.795C90.2229 147.624 89.893 148.42 89.3066 149.006C88.7202 149.592 87.9251 149.922 87.0958 149.923Z" fill="#CCCCCC"/>
<path d="M93.1933 159.867H78V74L78.C2823 74.077C82.5612 75.2516 86.3368 77.7972 89.0301 81.3235C91.7235 84.8498 93.186 89.1621 93.1933 93.5993V159.867Z" fill="#00ADEF"/>
<path d="M42.8516 92.4353C42.288 92.782 41.6229 92.9262 40.9663 92.8438C40.3096 92.7614 39.7007 92.4575 39.2402 91.9823L0.997818 52.4951C0.732433 52.2211 0.523652 51.8976 0.38333 51.5429C0.243008 51.1882 0.173913 50.8093 0.179981 50.428C0.186049 50.0466 0.267264 49.6701 0.418844 49.3201C0.570423 48.9701 0.789535 48.6534 1.06352 48.388L5.80134 43.7993C6.35491 43.2639 7.09844 42.9702 7.86847 42.9825C8.63851 42.9949 9.3722 43.3124 9.90829 43.8653L48.1511 83.3527C48.6862 83.9065 48.9797 84.65 48.9674 85.42C48.955 86.1899 48.6378 86.9236 48.0853 87.46L43.3474 92.0482C43.1965 92.1946 43.0303 92.3244 42.8516 92.4353Z" fill="#C8C9CB"/>
<path d="M65.1934 159.867H50V93.5993C50.0074 89.1621 51.4699 84.8498 54.1633 81.3236C56.8566 77.7973 60.6322 75.2517 64.9111 74.077L65.1934 74V159.867Z" fill="#00ADEF"/>
<path d="M71.9158 67.8315C85.1241 67.8315 95.8315 57.1241 95.8315 43.9158C95.8315 30.7075 85.1241 20 71.9158 20C58.7075 20 48 30.7075 48 43.9158C48 57.1241 58.7075 67.8315 71.9158 67.8315Z" fill="#C8C9CB"/>
<path d="M98.8688 36.0618C98.8688 36.0618 100.209 -1.02788 82.7817 11.0374C82.7817 11.0374 72.7273 -22.7007 48.1498 27.7948L41 34.9446C41 34.9446 73.1742 30.476 103.114 44.3287L98.8688 36.0618Z" fill="#00ADEF"/>
<path d="M41.6524 73.4665L56.9757 90.0035C57.4863 90.4663 57.7992 91.1078 57.8494 91.7951C57.8996 92.4823 57.6832 93.1625 57.2452 93.6945L50.8705 101.437C50.6187 101.743 50.3022 101.99 49.9439 102.158C49.5855 102.327 49.1942 102.415 48.798 102.414C48.4018 102.414 48.0106 102.326 47.6526 102.156C47.2946 101.987 46.9786 101.74 46.7274 101.433L32.0107 83.4867C31.5172 82.9755 31.2463 82.2897 31.2575 81.5792C31.2686 80.8688 31.5607 80.1916 32.0699 79.6961L37.8577 73.4058C38.3693 72.9112 39.0561 72.6398 39.7676 72.6512C40.479 72.6626 41.1569 72.9558 41.6524 73.4665Z" fill="#00ADEF"/>
<path d="M96.4001 72.7711L81.0597 89.2923C80.5486 89.7545 80.235 90.3957 80.1841 91.083C80.1332 91.7701 80.3489 92.4505 80.7863 92.983L87.153 100.732C87.4045 101.039 87.7208 101.285 88.0789 101.454C88.4371 101.624 88.8283 101.712 89.2246 101.712C89.6207 101.712 90.012 101.624 90.3702 101.455C90.7284 101.285 91.0446 101.039 91.2962 100.733L106.031 82.8014C106.525 82.2907 106.797 81.6051 106.787 80.8947C106.776 80.1842 106.485 79.5068 105.976 79.0107L100.195 72.7143C99.6839 72.2193 98.9972 71.9472 98.2857 71.9579C97.5742 71.9684 96.8961 72.261 96.4001 72.7711Z" fill="#00ADEF"/>
<line x1="57" y1="39.5" x2="64" y2="39.5" stroke="black"/>
<line x1="76" y1="39.5" x2="83" y2="39.5" stroke="black"/>
<line x1="69.4824" y1="38.8684" x2="72.4824" y2="49.8684" stroke="black"/>
<path d="M72 49.5C69 47 62.5 52.5 73 54.5" stroke="black"/>
</svg>
